<svg id="visual" viewBox="0 0 900 600" width="900" height="600" xmlns="http://www.w3.org/2000/svg" xmlns:xlink="http://www.w3.org/1999/xlink" version="1.1"><rect x="0" y="0" width="900" height="600" fill="#002233"></rect><path d="M304 0L287 20C270 40 236 80 223.7 120C211.3 160 220.7 200 252.5 240C284.3 280 338.7 320 369.3 360C400 400 407 440 369.3 480C331.7 520 249.3 560 208.2 580L167 600L0 600L0 580C0 560 0 520 0 480C0 440 0 400 0 360C0 320 0 280 0 240C0 200 0 160 0 120C0 80 0 40 0 20L0 0Z" fill="#0066FF" stroke-linecap="round" stroke-linejoin="miter"></path></svg>